<?xml version="1.0" standalone="no"?>
<!DOCTYPE svg PUBLIC "-//W3C//DTD SVG 20010904//EN"
 "http://www.w3.org/TR/2001/REC-SVG-20010904/DTD/svg10.dtd">
<svg version="1.0" xmlns="http://www.w3.org/2000/svg"
 width="1400.000000pt" height="1400.000000pt" viewBox="0 0 1400.000000 1400.000000"
 preserveAspectRatio="xMidYMid meet">

<g transform="translate(0.000000,1400.000000) scale(0.100000,-0.100000)"
fill="#000000" stroke="none">
<path d="M944 13396 c-17 -8 -34 -22 -39 -32 -22 -55 -28 -400 -16 -964 14
-698 14 -1600 1 -2015 -30 -935 -32 -1086 -14 -1113 24 -36 385 -402 397 -402
5 0 3 8 -4 18 -7 9 -1 6 14 -7 30 -27 36 -40 10 -21 -10 7 -3 -2 15 -19 l34
-32 -14 -52 c-10 -42 -12 -172 -8 -652 9 -1134 5 -2186 -9 -2585 -18 -468 -18
-1002 -2 -1165 15 -151 31 -246 41 -240 4 2 40 6 80 9 65 3 85 10 204 70 72
37 120 64 107 62 -35 -7 -17 6 84 59 178 94 221 118 290 164 38 25 77 54 87
63 16 16 25 20 44 17 4 0 10 4 14 11 4 6 14 12 23 14 9 1 24 10 35 19 10 9 37
23 61 32 23 8 54 23 69 34 15 10 44 26 65 35 22 9 52 27 69 41 16 14 35 25 41
25 7 0 44 22 83 49 l71 48 64 -24 c55 -20 93 -25 273 -34 123 -6 213 -6 220
-1 14 12 953 30 1171 24 39 -1 135 0 215 2 300 10 1535 24 1780 21 140 -1 446
-3 678 -3 297 -1 422 -4 417 -11 -3 -7 2 -11 14 -11 12 0 21 4 21 8 0 5 90 8
199 8 109 -1 194 -4 187 -8 -7 -5 -6 -8 4 -8 9 0 21 5 28 12 9 9 33 9 105 -1
51 -6 160 -12 242 -12 83 0 196 -2 252 -6 l102 -6 -6 1739 c-4 1401 -2 1974
12 2944 21 1465 23 2433 8 3128 -6 288 -13 525 -15 527 -2 1 -88 -2 -193 -7
-212 -11 -435 -6 -783 18 -128 9 -235 15 -237 13 -2 -2 -31 -56 -64 -119 l-61
-115 0 85 c0 141 59 125 -463 125 -249 0 -522 4 -607 9 l-155 8 -60 -113 -60
-114 -3 105 -3 105 -512 3 c-282 1 -557 3 -612 5 l-100 2 -83 -165 c-50 -99
-89 -193 -100 -236 l-17 -71 -289 -8 c-160 -4 -583 -4 -940 0 l-651 7 -510
218 c-704 300 -1210 501 -1259 500 -6 -1 -25 -7 -42 -14z m166 -113 c179 -88
546 -238 1330 -547 245 -96 265 -106 264 -127 -1 -13 -7 -71 -14 -129 -16
-134 -17 -1473 -1 -2370 20 -1175 14 -2649 -19 -4095 -5 -242 -12 -588 -16
-768 l-6 -328 -42 -23 c-22 -12 -132 -73 -243 -134 -252 -139 -558 -322 -768
-460 -178 -116 -210 -140 -120 -91 33 18 56 28 50 22 -21 -20 -100 -60 -112
-56 -10 4 -11 23 -6 75 4 52 3 69 -5 64 -8 -5 -11 12 -11 56 0 35 -3 194 -8
353 -6 219 -9 953 -4 1053 0 6 1 22 1 35 1 12 3 382 4 822 2 440 9 980 16
1200 7 220 11 523 9 673 l-4 274 -27 22 c-21 16 -28 31 -28 55 0 22 -12 49
-35 81 -37 50 -76 89 -61 60 4 -8 -16 12 -45 45 -30 33 -98 106 -151 162 -93
99 -97 105 -104 160 -6 45 -11 883 -6 966 1 9 1 25 0 35 0 9 2 82 6 162 3 80
5 318 4 530 -4 505 -1 825 13 1330 6 228 10 538 8 688 -2 149 -2 271 1 269 3
-2 61 -30 130 -64z m5375 -188 c28 -4 196 -6 375 -5 179 1 355 -2 391 -5 l65
-7 0 -197 -1 -198 -110 -7 c-201 -11 -570 -7 -584 7 -8 7 -11 7 -8 1 5 -9 -66
-12 -273 -11 -272 0 -279 1 -269 19 6 11 8 22 5 25 -3 3 4 23 14 44 11 21 20
44 20 50 0 7 11 35 24 63 21 44 45 104 85 209 l11 29 103 -6 c56 -3 125 -8
152 -11z m1860 -1 c171 -3 315 -7 321 -9 11 -3 10 -151 -2 -333 l-6 -83 -22
15 c-27 17 -322 35 -297 18 10 -7 -63 -11 -225 -12 -131 0 -343 -2 -471 -4
l-232 -2 15 20 c17 24 18 40 3 31 -5 -4 3 20 19 52 17 32 32 74 35 92 3 18 13
41 21 50 9 10 24 42 35 72 10 30 24 67 30 82 l11 28 227 -6 c126 -2 368 -7
538 -11z m-3582 -401 c-7 -2 -19 -2 -25 0 -7 3 -2 5 12 5 14 0 19 -2 13 -5z
m104 1 c-3 -3 -12 -4 -19 -1 -8 3 -5 6 6 6 11 1 17 -2 13 -5z m1103 -10 c0
-11 -5 -14 -17 -9 -10 3 -238 9 -508 12 -269 3 -492 7 -494 9 -2 2 226 4 507
4 464 0 512 -2 512 -16z m2680 -456 c-14 -434 -12 -1205 11 -4118 7 -957 9
-1906 4 -2394 l-7 -809 -472 7 c-259 4 -736 11 -1061 16 -2325 38 -3293 33
-4115 -17 l-125 -8 80 -6 c60 -4 46 -5 -60 -5 l-140 1 -2 75 c-12 535 -15
1060 -5 1060 8 0 11 25 10 78 l-1 77 -7 -60 c-5 -47 -7 -32 -7 63 0 68 3 119
6 114 3 -6 7 139 8 321 1 183 5 442 10 577 4 135 6 448 3 695 -9 817 -4 2010
10 2650 17 715 19 1918 4 2011 l-10 61 125 7 c196 10 2348 7 2911 -4 1693 -33
2271 -32 2690 3 80 7 147 12 149 10 2 -1 -2 -183 -9 -405z m-5567 -7335 c-7
-2 -19 -2 -25 0 -7 3 -2 5 12 5 14 0 19 -2 13 -5z m705 -50 c-21 -2 -57 -2
-80 0 -24 2 -7 4 37 4 44 0 63 -2 43 -4z m235 0 c-24 -2 -62 -2 -85 0 -24 2
-5 4 42 4 47 0 66 -2 43 -4z m4604 -9 c-3 -3 -12 -4 -19 -1 -8 3 -5 6 6 6 11
1 17 -2 13 -5z"/>
<path d="M6328 13093 c7 -3 16 -2 19 1 4 3 -2 6 -13 5 -11 0 -14 -3 -6 -6z"/>
<path d="M7820 12171 c-151 -5 -170 -7 -105 -12 44 -3 -10 -4 -120 -1 -110 2
-245 3 -300 2 -55 -2 -251 -5 -435 -8 -184 -3 -363 -6 -397 -8 -36 -2 -63 1
-63 6 0 6 -7 10 -16 10 -8 0 -12 -4 -9 -10 4 -6 -47 -9 -139 -9 -82 0 -148 4
-151 9 -8 14 -45 13 -45 -1 0 -6 -11 -8 -27 -5 -55 12 -989 20 -1893 17 -509
-2 -926 -4 -927 -5 -7 -5 -27 -1421 -28 -1916 0 -530 2 -619 15 -645 19 -38
101 -80 172 -89 29 -4 211 -1 403 5 193 6 368 10 390 9 55 -4 67 -3 338 4 158
4 236 3 232 -4 -4 -6 4 -6 21 0 15 6 82 11 148 11 67 -1 154 2 194 4 46 4 72
2 72 -5 0 -5 10 -10 23 -9 21 0 21 1 2 9 -15 6 -8 9 28 9 36 1 46 -2 41 -11
-6 -10 -5 -10 7 -1 8 7 57 11 124 12 75 1 105 -2 95 -9 -12 -8 -11 -10 8 -10
12 0 22 4 22 9 0 6 42 9 95 8 52 0 91 -3 86 -6 -5 -4 124 -7 287 -9 417 -3
2376 -1 2380 3 9 8 25 1176 26 1820 1 820 8 754 -87 802 -46 23 -64 26 -167
28 -63 1 -198 -1 -300 -4z m483 -76 c-23 -207 -25 -361 -17 -1285 5 -542 9
-1041 9 -1110 l0 -125 -980 2 c-539 1 -1343 9 -1788 17 -923 18 -1412 20
-1777 6 -323 -12 -413 -19 -420 -31 -3 -5 -27 -8 -54 -7 -45 2 -47 3 -41 28
25 96 31 904 16 2035 -3 253 -4 466 -2 474 4 12 160 13 1085 7 595 -4 1248
-11 1451 -17 1000 -25 2009 -21 2355 8 79 7 82 8 40 14 -32 5 -21 6 40 5 78
-1 85 -3 83 -21z m-4920 -2532 c-7 -2 -21 -2 -30 0 -10 3 -4 5 12 5 17 0 24
-2 18 -5z"/>
<path d="M4367 11710 c-26 -16 -112 -85 -190 -153 -150 -130 -389 -312 -547
-417 -52 -35 -97 -64 -98 -66 -2 -1 -8 -38 -14 -82 -11 -92 4 -257 52 -592 16
-113 34 -247 40 -299 9 -77 16 -101 40 -136 16 -23 36 -45 44 -48 16 -6 59 3
66 14 18 27 571 17 935 -17 201 -18 220 -21 273 -46 33 -16 54 -19 90 -14 96
13 120 52 138 221 33 298 27 710 -12 914 -10 57 -11 77 -2 82 9 6 9 14 1 32
-11 24 -455 392 -623 517 -55 40 -85 69 -85 82 -1 21 -21 38 -46 38 -8 0 -36
-13 -62 -30z m395 -328 l323 -258 -5 -505 c-5 -479 -6 -506 -25 -544 -26 -52
-61 -65 -110 -42 -19 9 -71 20 -115 23 l-80 7 -4 31 c-3 17 -9 131 -14 253
-11 252 -20 288 -91 338 -68 46 -118 55 -313 55 -274 0 -268 9 -243 -322 9
-123 23 -252 30 -288 7 -36 12 -66 11 -68 -5 -4 -368 -23 -372 -19 -2 2 -9 75
-14 163 -20 318 -61 688 -86 772 -5 16 -2 22 10 22 21 0 101 52 261 171 146
109 311 254 430 381 44 47 81 86 82 87 1 0 148 -115 325 -257z m-165 -725 c4
-5 10 -135 13 -290 3 -155 9 -288 13 -294 6 -10 -34 -13 -191 -13 l-199 0 -7
143 c-4 78 -11 174 -16 212 -13 101 -12 198 3 217 27 34 50 38 214 36 89 -2
165 -7 170 -11z"/>
<path d="M6983 11391 c-60 -54 -166 -147 -238 -207 -152 -128 -183 -166 -225
-276 -67 -173 -69 -208 -36 -661 13 -185 14 -189 43 -225 45 -56 94 -68 338
-81 382 -20 678 -31 863 -31 l184 0 -6 28 c-16 79 -26 251 -31 552 -4 184 -11
349 -16 365 -8 24 -49 57 -223 172 -203 136 -372 262 -484 364 -42 38 -49 50
-45 72 3 16 1 27 -6 27 -6 0 -59 -44 -118 -99z m267 -141 c91 -72 240 -181
333 -243 l167 -112 0 -46 c0 -25 14 -154 30 -285 31 -242 53 -533 41 -546 -3
-4 -67 -3 -141 2 -74 5 -208 9 -296 10 l-162 0 -7 209 c-4 115 -4 245 0 290 7
79 7 81 -17 90 -13 5 -117 15 -231 22 -114 7 -207 16 -207 21 0 4 -5 8 -12 8
-8 0 -9 -68 -4 -272 4 -150 11 -294 15 -320 l8 -48 -83 0 -83 0 -5 53 c-3 28
-13 153 -22 277 -17 227 -15 364 6 433 18 60 147 221 325 406 91 94 165 176
165 182 0 13 -10 21 180 -131z m-290 -645 c176 -9 157 9 165 -162 6 -134 24
-296 41 -380 l7 -33 -161 0 -160 0 -6 33 c-3 17 -17 121 -31 230 -14 109 -29
217 -35 240 -5 23 -10 53 -10 66 0 22 3 23 38 18 20 -3 89 -9 152 -12z"/>
<path d="M5733 11180 c-21 -22 -59 -77 -83 -123 -24 -45 -73 -129 -110 -187
-108 -169 -105 -161 -105 -280 1 -171 35 -673 46 -687 9 -10 80 -12 328 -12
338 2 366 5 375 52 11 48 13 527 4 617 -22 205 -33 228 -261 532 -112 148
-127 155 -194 88z m122 -210 c3 -5 1 -10 -4 -10 -6 0 -11 5 -11 10 0 6 2 10 4
10 3 0 8 -4 11 -10z m-1 -325 c3 -8 1 -15 -4 -15 -6 0 -10 7 -10 15 0 8 2 15
4 15 2 0 6 -7 10 -15z m53 -172 c41 -7 41 -7 45 -278 l3 -220 -121 -3 -121 -3
-6 98 c-4 54 -7 167 -7 251 0 149 1 153 23 162 21 9 112 6 184 -7z"/>
<path d="M6138 12153 c6 -2 18 -2 25 0 6 3 1 5 -13 5 -14 0 -19 -2 -12 -5z"/>
<path d="M6288 12153 c7 -3 16 -2 19 1 4 3 -2 6 -13 5 -11 0 -14 -3 -6 -6z"/>
<path d="M5622 9030 c-71 -11 -84 -52 -24 -77 33 -14 91 -15 552 -7 653 11
974 8 1320 -12 303 -18 622 -14 725 9 43 10 54 15 40 20 -13 4 -11 5 8 3 37
-4 42 7 15 39 -23 25 -24 26 -126 19 -64 -4 -98 -10 -90 -16 14 -9 -82 -5 -98
4 -5 3 -31 2 -59 -2 -96 -15 -365 -23 -365 -11 0 6 -11 11 -25 11 -14 0 -25
-4 -25 -10 0 -5 -6 -8 -12 -5 -33 10 -364 19 -663 16 -199 -2 -459 4 -655 13
-341 17 -447 18 -518 6z"/>
<path d="M3258 9004 c-28 -9 -34 -45 -9 -65 32 -26 132 -33 335 -23 290 14
849 11 1021 -6 83 -8 211 -14 285 -14 135 0 275 18 264 35 -3 5 4 9 15 9 27 0
27 24 1 50 -19 19 -77 29 -66 11 3 -5 -11 -9 -32 -9 -20 0 -82 -4 -137 -9
-127 -10 -417 -9 -560 3 -60 5 -157 6 -215 2 -58 -3 -193 -2 -300 3 -250 13
-580 19 -602 13z"/>
<path d="M3755 8674 c-131 -19 -166 -27 -155 -34 9 -6 4 -9 -15 -12 l-29 -3
25 -28 25 -29 129 10 c72 6 139 10 150 10 11 0 58 2 105 6 271 18 282 19 291
5 8 -12 10 -12 18 0 7 11 10 11 15 0 5 -11 7 -11 12 -1 3 6 10 10 14 7 17 -11
323 -18 625 -16 201 2 415 -3 610 -14 306 -18 526 -15 551 6 26 21 16 49 -23
66 -34 14 -90 15 -523 7 -554 -10 -905 -8 -1135 7 -176 11 -643 20 -690 13z"/>
<path d="M6465 8673 c-31 -8 -45 -23 -45 -49 0 -44 27 -47 400 -38 410 10 653
7 810 -8 167 -17 515 -17 564 1 28 10 35 16 25 22 -10 6 -8 9 9 9 26 0 27 8 6
38 -14 21 -22 23 -67 17 -29 -3 -77 -7 -107 -10 -30 -2 -102 -9 -160 -15 -58
-6 -141 -9 -185 -5 -44 3 -116 9 -160 12 -44 4 -190 6 -325 4 -157 -2 -315 3
-440 13 -193 16 -286 18 -325 9z m1643 -30 c-10 -2 -26 -2 -35 0 -10 3 -2 5
17 5 19 0 27 -2 18 -5z"/>
<path d="M3460 8303 c-62 -5 -188 -32 -195 -43 -3 -5 0 -20 6 -34 13 -28 67
-46 79 -27 3 7 24 11 46 11 21 0 68 2 104 4 159 12 463 12 570 1 63 -7 138
-11 165 -9 112 7 526 3 615 -6 106 -11 383 -13 418 -4 16 5 22 14 22 35 0 51
-18 55 -295 49 -504 -10 -1020 -4 -1208 13 -169 16 -224 18 -327 10z"/>
<path d="M5632 7611 c-76 -9 -97 -48 -41 -76 27 -15 104 -16 762 -9 579 6 774
4 932 -7 389 -27 892 -15 870 21 -3 4 4 6 16 3 30 -8 22 24 -12 49 -24 18 -33
19 -140 8 -266 -25 -476 -29 -769 -15 -96 4 -332 7 -525 6 -227 -2 -447 3
-625 13 -284 16 -377 18 -468 7z"/>
<path d="M3259 7583 c-10 -2 -19 -13 -22 -25 -17 -64 29 -73 338 -62 370 13
815 11 1010 -6 94 -8 231 -14 305 -14 135 0 275 18 264 35 -3 5 4 9 15 9 23 0
26 12 11 40 -11 21 -60 36 -70 20 -9 -15 -235 -26 -470 -22 -107 1 -352 4
-545 6 -192 2 -402 8 -465 14 -111 11 -337 14 -371 5z"/>
<path d="M3465 7254 c-107 -11 -177 -26 -164 -36 10 -7 6 -8 -13 -4 -36 8 -41
-5 -15 -38 l22 -27 155 11 c85 6 171 10 190 9 19 -1 76 1 125 5 160 12 325 16
325 8 0 -10 234 -14 700 -12 231 0 521 -6 725 -16 370 -18 584 -16 610 6 28
23 14 54 -30 69 -41 14 -41 14 -1135 -5 -270 -4 -428 -2 -660 11 -301 16 -757
27 -835 19z"/>
<path d="M6475 7253 c-39 -6 -55 -20 -55 -49 0 -49 49 -52 660 -39 334 7 410
5 572 -10 275 -26 548 -13 548 26 0 5 3 8 8 7 12 -5 15 6 8 29 -10 31 -32 35
-117 23 -145 -21 -399 -34 -399 -20 0 5 -7 10 -15 10 -8 0 -15 -5 -15 -11 0
-5 -5 -7 -10 -4 -20 12 -165 18 -425 16 -163 -1 -330 4 -448 14 -185 15 -252
16 -312 8z"/>
<path d="M3380 6874 c-41 -8 -94 -26 -107 -36 -13 -11 -1 -46 21 -60 15 -10
58 -10 53 0 -3 4 16 7 41 8 26 0 74 3 107 6 169 15 318 20 312 11 -3 -5 0 -10
8 -10 8 0 12 4 9 9 -3 4 4 8 15 8 12 0 21 -6 21 -12 0 -9 3 -9 8 -3 8 12 52
18 52 7 0 -10 60 -12 372 -11 152 0 332 -5 400 -12 143 -13 371 -17 411 -6 22
6 27 13 27 37 0 20 -7 33 -22 41 -28 15 -171 16 -658 5 -262 -6 -405 -5 -505
4 -150 12 -524 22 -565 14z"/>
<path d="M5648 6323 c-32 -5 -47 -38 -26 -60 26 -25 152 -35 363 -29 471 14
1107 18 1295 7 565 -32 599 -33 741 -22 130 10 259 35 259 50 0 3 -9 17 -19
30 -13 17 -30 24 -67 28 -33 3 -45 1 -35 -5 9 -7 -6 -10 -50 -10 -35 0 -102
-2 -149 -5 -302 -18 -452 -20 -461 -6 -7 11 -9 11 -9 1 0 -10 -17 -13 -67 -11
-38 1 -71 4 -75 6 -14 7 -210 13 -378 11 -261 -4 -606 2 -770 12 -142 9 -498
11 -552 3z"/>
<path d="M3273 6303 c-38 -5 -54 -46 -28 -72 17 -17 41 -18 820 -11 280 3 413
0 595 -14 419 -33 648 -1 562 77 -16 14 -32 15 -133 7 -62 -4 -121 -8 -129 -8
-18 0 -154 -12 -192 -17 -16 -2 -28 0 -28 3 0 9 -234 14 -578 12 -159 0 -362
6 -484 15 -199 14 -333 17 -405 8z"/>
<path d="M3855 5971 c-151 -11 -225 -22 -225 -32 0 -5 -16 -9 -35 -9 -41 0
-44 -9 -12 -37 24 -22 144 -43 132 -23 -4 6 20 10 67 11 40 0 150 3 243 7 94
4 330 5 525 3 195 -2 607 -4 915 -5 308 -1 682 -8 830 -15 328 -16 634 -12
658 8 27 22 20 47 -15 62 -27 12 -121 13 -518 9 -783 -8 -1569 -5 -1800 8
-303 16 -636 22 -765 13z"/>
<path d="M2763 5930 c0 -25 2 -35 4 -22 2 12 2 32 0 45 -2 12 -4 2 -4 -23z"/>
<path d="M7262 5961 c-8 -5 -12 -21 -10 -37 5 -46 37 -56 153 -49 336 19 387
18 547 -5 131 -19 164 -20 209 -11 61 13 89 34 89 66 0 26 -28 54 -38 39 -14
-19 -107 -29 -242 -26 -58 1 -179 4 -270 6 -91 2 -192 9 -224 15 -70 13 -195
14 -214 2z"/>
<path d="M2762 5770 c0 -14 2 -19 5 -12 2 6 2 18 0 25 -3 6 -5 1 -5 -13z"/>
<path d="M2762 5660 c0 -14 2 -19 5 -12 2 6 2 18 0 25 -3 6 -5 1 -5 -13z"/>
<path d="M3525 5595 c-11 -2 -67 -9 -125 -16 -74 -8 -99 -14 -85 -20 16 -7 13
-8 -12 -6 -39 2 -42 -7 -13 -40 21 -24 24 -25 108 -19 268 20 1018 31 1027 15
4 -5 11 -7 16 -3 16 10 59 12 59 3 0 -5 12 -4 28 2 34 13 33 13 42 -2 6 -9
139 -13 592 -14 320 -2 653 -8 738 -14 191 -13 610 -14 643 -2 13 5 27 17 31
27 23 59 -82 67 -724 57 -643 -10 -1094 -6 -1475 13 -289 14 -812 26 -850 19z"/>
<path d="M11080 13300 c-141 -13 -372 -80 -490 -141 -82 -42 -222 -150 -299
-231 -109 -114 -215 -336 -242 -508 -46 -294 84 -643 307 -824 162 -133 417
-226 617 -226 l78 0 46 -97 c24 -54 63 -141 85 -193 76 -180 91 -210 103 -210
6 0 46 105 90 238 l79 238 112 27 c203 49 365 125 534 253 199 150 303 302
347 507 19 92 13 297 -12 377 -78 253 -299 483 -608 634 -261 127 -508 179
-747 156z m327 -816 c65 -42 87 -82 79 -141 -8 -59 -31 -100 -66 -118 -102
-53 -280 42 -280 150 0 30 31 95 54 114 28 24 90 41 126 35 19 -3 58 -21 87
-40z m564 18 c92 -48 142 -159 107 -236 -30 -68 -174 -88 -269 -38 -96 50
-142 163 -93 229 56 76 161 94 255 45z m-1205 -23 c139 -67 88 -259 -69 -259
-74 0 -126 20 -174 66 -38 36 -43 46 -43 85 0 59 30 95 100 120 64 23 123 19
186 -12z"/>
<path d="M12215 11346 c-192 -37 -377 -165 -459 -317 -45 -82 -9 -98 48 -20
108 147 281 241 472 257 265 21 496 -150 534 -396 26 -169 -62 -398 -258 -671
-54 -75 -113 -168 -132 -207 -25 -51 -39 -69 -50 -66 -119 42 -312 73 -443 74
-58 0 -118 25 -171 69 -71 61 -77 214 -24 649 16 133 19 185 11 193 -18 18
-30 3 -53 -66 -19 -58 -28 -70 -80 -110 -90 -69 -110 -98 -110 -157 0 -44 4
-54 34 -84 19 -19 41 -34 50 -34 13 0 14 -16 9 -117 -7 -141 5 -209 50 -284
28 -47 73 -85 122 -102 6 -2 -12 -24 -40 -49 -49 -45 -51 -46 -150 -57 -55 -7
-118 -11 -141 -9 l-41 3 14 32 c31 75 0 166 -71 208 -31 18 -55 46 -90 105
-52 86 -100 136 -141 146 -14 3 -101 5 -193 2 -162 -3 -169 -4 -233 -35 -88
-41 -142 -92 -180 -169 -30 -60 -32 -69 -27 -147 l6 -84 -88 0 c-128 -1 -136
-6 -180 -133 -48 -137 -120 -301 -130 -295 -4 3 -11 -2 -14 -11 -3 -8 -2 -12
4 -9 6 3 7 -1 4 -9 -3 -9 -11 -13 -17 -9 -6 3 -7 1 -3 -5 3 -6 0 -26 -9 -44
-8 -18 -13 -25 -10 -15 3 11 1 16 -6 12 -6 -4 -8 -13 -5 -21 7 -18 -3 -46 -14
-39 -4 3 -11 -2 -14 -11 -3 -8 -2 -12 4 -9 5 3 7 -1 4 -9 -3 -8 -12 -17 -21
-20 -8 -4 -13 -13 -9 -21 3 -8 1 -15 -4 -15 -6 0 -10 -9 -10 -20 0 -11 -4 -20
-9 -20 -9 0 -26 -48 -22 -63 1 -5 -2 -6 -7 -3 -5 3 -20 -18 -33 -47 -13 -29
-29 -57 -35 -64 -21 -22 -92 -236 -123 -369 -48 -203 -57 -310 -39 -421 49
-288 244 -432 584 -433 99 0 201 17 275 45 11 4 14 -15 16 -104 3 -120 -9
-230 -36 -341 -22 -94 -7 -341 30 -478 22 -83 46 -136 84 -180 l25 -30 -26
-29 c-42 -44 -69 -93 -97 -170 -43 -117 -57 -222 -67 -483 -5 -135 -12 -285
-15 -335 -3 -49 -12 -292 -20 -540 -29 -883 -63 -1429 -150 -2395 -51 -568
-66 -808 -68 -1070 -1 -214 1 -242 21 -315 27 -95 72 -174 130 -225 l42 -38
-31 -12 c-84 -35 -274 -184 -310 -244 -29 -47 -25 -102 9 -136 42 -42 85 -50
327 -61 121 -5 333 -23 470 -40 199 -24 275 -30 370 -26 118 5 231 30 219 48
-3 5 0 9 5 9 6 0 11 5 11 10 0 6 9 19 19 29 41 41 37 236 -8 379 l-19 62 24
76 c70 219 100 592 134 1664 15 473 39 803 60 824 11 11 11 15 14 -109 1 -49
10 -173 20 -275 10 -105 19 -299 21 -449 2 -145 6 -266 9 -269 12 -11 6 -120
-6 -125 -10 -3 -10 -7 -1 -19 9 -10 11 -35 7 -77 -4 -42 -1 -67 7 -77 9 -12 9
-20 0 -38 -14 -25 -9 -244 9 -381 6 -44 15 -151 20 -237 11 -181 27 -264 70
-349 53 -104 126 -171 213 -194 21 -5 39 -14 40 -20 1 -11 -84 -76 -185 -140
-103 -66 -131 -132 -88 -203 24 -39 82 -67 155 -76 28 -4 192 -15 365 -26 323
-21 540 -25 649 -13 55 5 64 9 72 32 6 14 15 29 21 32 38 24 25 201 -28 358
-35 105 -35 105 -20 165 55 222 69 766 42 1636 -9 283 -21 814 -26 1180 -6
366 -15 753 -20 860 -5 107 -10 321 -10 475 -1 720 -72 1006 -315 1264 -62 65
-96 90 -80 59 4 -7 -10 5 -30 27 -20 22 -33 33 -29 25 5 -8 -4 -5 -20 8 -16
12 -32 22 -37 22 -20 0 32 -93 90 -160 74 -87 77 -90 66 -71 -5 10 -4 12 4 7
18 -12 79 -111 115 -189 69 -150 78 -172 87 -224 11 -65 26 -142 39 -206 26
-130 45 -458 44 -792 -1 -88 3 -151 7 -140 7 19 10 -25 15 -240 1 -44 2 -82 4
-85 1 -3 3 -192 5 -420 1 -228 10 -608 19 -845 38 -1031 10 -1844 -77 -2197
l-21 -88 -250 0 c-138 -1 -296 -2 -350 -4 -87 -3 -103 -1 -127 16 -15 11 -57
29 -95 39 -85 24 -132 67 -179 164 -42 87 -55 158 -55 299 -1 61 -8 183 -16
271 -12 120 -18 369 -23 985 -9 879 -13 962 -64 1195 -25 118 -26 158 -8 415
17 245 12 677 -8 690 -8 5 -12 17 -8 31 3 13 2 32 -2 43 -6 16 -10 14 -33 -17
-22 -28 -28 -49 -33 -113 -4 -44 -3 -74 2 -67 8 11 7 -116 -3 -597 -4 -154
-10 -257 -16 -261 -6 -4 -10 -62 -10 -143 -1 -75 -4 -136 -7 -136 -3 0 -6 -26
-7 -57 0 -55 -10 -181 -19 -248 -26 -197 -37 -386 -45 -780 -8 -447 -17 -623
-46 -910 -28 -289 -89 -607 -140 -736 -12 -33 -21 -65 -18 -72 3 -9 -24 -12
-103 -12 -95 -1 -464 -24 -640 -42 -62 -6 -63 -5 -63 19 0 14 -10 37 -22 52
-13 15 -39 46 -59 69 -19 23 -43 53 -52 67 -11 15 -17 19 -17 10 -1 -21 -27
27 -39 70 -25 87 -33 203 -33 475 1 422 10 823 19 837 7 12 12 91 13 217 0 33
5 58 12 63 10 6 10 8 0 8 -9 0 -11 7 -6 22 4 13 8 45 10 73 6 97 13 181 24
274 6 52 8 96 5 99 -2 3 -1 10 4 16 9 11 24 235 41 641 13 297 33 580 65 925
13 146 33 362 44 480 28 304 41 502 41 644 0 211 29 371 87 478 26 47 27 48
66 41 34 -5 42 -3 58 18 33 43 24 62 -71 157 -68 68 -97 105 -122 158 l-33 69
1 170 c0 157 3 184 38 345 27 127 37 199 37 263 0 49 4 87 9 87 5 0 47 22 92
49 46 27 126 73 178 104 132 77 248 165 352 269 86 87 101 111 75 121 -8 3
-92 -47 -188 -112 -231 -155 -405 -258 -468 -277 -28 -8 -97 -35 -154 -59
-164 -70 -242 -88 -382 -88 -181 1 -288 42 -359 141 -80 109 -98 268 -52 457
56 228 138 427 350 854 115 229 158 325 190 415 6 18 15 19 144 13 133 -6 204
-19 332 -64 25 -8 58 -17 74 -19 25 -3 28 -1 22 19 -3 12 -6 30 -6 39 0 20
-81 70 -107 67 -10 -1 -60 11 -110 27 -71 22 -93 33 -93 46 0 10 -4 18 -9 18
-17 0 -17 95 0 154 25 82 59 130 113 156 25 12 52 23 58 24 7 1 18 4 23 8 6 3
35 5 65 3 30 -2 96 1 145 6 126 15 155 3 195 -82 16 -34 27 -65 25 -69 -13
-21 -157 -29 -276 -15 -71 8 -116 -2 -159 -34 -21 -16 -22 -21 -11 -35 11 -13
25 -15 60 -11 34 5 69 -1 130 -19 105 -32 120 -32 214 -1 72 24 78 25 106 10
42 -21 65 -68 57 -117 -4 -21 -2 -48 4 -58 9 -17 8 -20 -12 -16 -13 2 -32 -1
-43 -7 -11 -6 -39 -12 -62 -13 -62 -2 -144 -48 -222 -123 -82 -80 -139 -160
-221 -311 -34 -63 -85 -149 -112 -190 -59 -86 -98 -165 -98 -197 0 -12 -54
-120 -121 -240 -180 -323 -271 -501 -264 -513 14 -23 38 -6 96 67 161 203 313
465 409 708 13 33 39 84 57 112 19 29 47 88 64 130 111 286 158 356 297 444
99 63 155 73 377 71 323 -3 492 -9 630 -20 72 -6 195 -14 274 -16 141 -5 145
-6 199 -38 73 -44 135 -116 183 -213 77 -155 88 -295 70 -880 -12 -399 -36
-941 -47 -1035 -14 -131 -64 -282 -155 -464 -107 -213 -150 -286 -172 -291
-12 -2 -89 -11 -172 -20 -82 -9 -157 -18 -165 -21 -8 -3 -179 -9 -380 -14
-341 -8 -600 -25 -600 -39 0 -3 -18 -6 -40 -6 -53 -1 -61 -12 -26 -40 21 -17
45 -24 100 -28 39 -2 73 -1 76 4 3 4 138 11 300 14 275 5 504 23 610 46 24 6
55 7 69 4 14 -4 27 -1 32 6 4 7 34 12 78 13 39 0 71 4 71 8 0 4 5 8 11 8 5 0
7 -5 3 -11 -3 -6 7 -4 22 4 16 8 34 13 39 11 15 -4 47 41 89 124 21 39 42 72
47 72 5 0 9 11 9 24 0 13 4 26 8 28 8 3 80 145 140 278 28 60 60 190 67 270 3
36 10 198 15 360 12 341 22 524 51 920 30 408 18 546 -61 707 -62 126 -170
229 -270 258 -42 12 -120 66 -120 84 0 27 54 112 145 227 172 217 258 375 305
560 72 280 -69 549 -341 654 -98 37 -232 48 -344 26z m-603 -802 c-9 -15 -10
-15 -17 5 -4 13 -1 28 7 38 12 15 13 14 16 -5 2 -12 -1 -29 -6 -38z m666 -656
c87 -10 94 -12 103 -37 6 -14 20 -34 32 -44 l22 -18 -30 5 c-76 14 -336 55
-385 62 -54 6 -108 22 -82 23 7 1 11 5 7 10 -13 22 147 21 333 -1z m-333
-9084 c-12 -24 -15 -25 -15 -8 0 11 5 25 12 32 18 18 20 8 3 -24z m-1775 -19
c0 -25 -14 -34 -24 -16 -8 12 3 41 15 41 5 0 9 -11 9 -25z m677 -81 c-3 -3
-12 -4 -19 -1 -8 3 -5 6 6 6 11 1 17 -2 13 -5z"/>
<path d="M12060 10751 c-32 -17 -61 -63 -48 -76 3 -3 21 2 41 11 41 19 77 14
109 -18 18 -18 20 -29 15 -84 -6 -75 -42 -145 -90 -175 -31 -19 -65 -21 -152
-7 -34 5 -29 -28 10 -57 39 -30 101 -42 161 -31 51 10 135 95 157 160 23 66
22 160 -2 213 -34 74 -128 104 -201 64z"/>
<path d="M10086 9515 c-9 -26 -7 -32 5 -12 6 10 9 21 6 23 -2 3 -7 -2 -11 -11z"/>
<path d="M5448 4833 c6 -2 18 -2 25 0 6 3 1 5 -13 5 -14 0 -19 -2 -12 -5z"/>
<path d="M3121 4458 c-16 -35 -31 -73 -35 -85 -6 -18 -18 -21 -96 -27 -49 -4
-92 -12 -96 -17 -9 -16 24 -47 83 -75 61 -30 62 -32 32 -146 -25 -99 -23 -132
9 -136 18 -3 40 13 93 69 60 62 73 71 87 62 101 -70 143 -92 148 -78 3 8 -6
51 -21 96 l-28 83 29 23 c129 107 127 123 -17 123 l-67 0 -35 82 c-19 45 -40
84 -46 86 -6 2 -24 -25 -40 -60z"/>
<path d="M3749 4438 l-35 -83 -89 -10 c-78 -9 -90 -12 -90 -29 0 -13 19 -30
60 -52 33 -19 64 -35 69 -37 5 -2 0 -46 -12 -98 -26 -111 -28 -148 -7 -155 21
-8 59 19 120 85 l52 55 79 -51 c44 -30 82 -49 87 -44 5 5 -3 47 -19 95 l-28
86 64 60 c79 73 74 83 -42 90 l-81 5 -35 83 c-19 45 -40 82 -46 82 -7 0 -27
-37 -47 -82z"/>
<path d="M6959 4437 c-103 -35 -176 -84 -285 -192 -97 -96 -131 -145 -136
-196 -2 -19 2 -25 24 -27 21 -3 35 6 65 40 96 110 254 263 307 299 84 56 132
53 203 -13 l31 -30 -40 -32 c-52 -40 -108 -134 -87 -147 23 -14 127 -10 167 7
49 20 99 69 113 111 6 18 16 33 22 33 6 0 34 -26 63 -57 l53 -57 138 -8 c76
-4 224 -21 328 -39 227 -37 383 -42 490 -15 39 9 77 21 85 26 23 14 -14 47
-75 66 -50 16 -54 16 -110 -5 -93 -35 -237 -45 -390 -27 -72 9 -182 21 -245
28 l-115 12 -34 38 c-39 45 -93 75 -159 88 -35 6 -59 20 -94 54 -27 25 -64 49
-85 55 -63 18 -162 13 -234 -12z"/>
<path d="M3141 3748 c-5 -13 -23 -53 -39 -89 l-30 -66 -83 -6 c-45 -4 -87 -11
-93 -17 -15 -15 15 -42 82 -74 l59 -28 -26 -110 c-38 -165 -12 -184 96 -73 35
36 69 65 76 65 7 0 42 -20 79 -45 100 -67 103 -64 62 59 l-27 79 63 57 c80 71
78 89 -7 91 -107 2 -110 4 -150 97 -19 45 -39 82 -44 82 -5 0 -13 -10 -18 -22z"/>
<path d="M3766 3720 c-13 -30 -31 -71 -39 -91 l-15 -36 -83 -6 c-45 -4 -87
-11 -93 -17 -15 -15 19 -46 81 -75 29 -14 53 -31 53 -38 0 -7 -9 -46 -20 -87
-21 -82 -26 -145 -10 -155 17 -11 68 24 116 80 26 30 54 55 61 55 8 0 44 -20
81 -45 63 -42 92 -54 92 -38 0 4 -12 44 -27 90 l-27 84 63 59 c55 50 62 61 51
75 -8 9 -29 15 -59 15 -106 0 -114 5 -145 80 -15 38 -34 77 -41 87 -12 16 -16
13 -39 -37z"/>
<path d="M4386 3682 l-38 -89 -84 -6 c-46 -3 -89 -9 -94 -12 -20 -13 11 -44
75 -76 47 -23 64 -36 61 -48 -34 -126 -48 -211 -37 -224 20 -25 52 -7 121 65
l66 68 72 -51 c99 -70 109 -63 72 47 -17 48 -30 89 -30 90 0 2 27 24 61 49 45
36 59 52 57 69 -3 19 -11 22 -87 28 -46 4 -85 8 -87 10 -1 2 -18 39 -37 83
-18 43 -38 80 -44 82 -5 2 -27 -36 -47 -85z"/>
<path d="M5044 3735 c-8 -20 -25 -60 -38 -89 l-24 -53 -83 -6 c-45 -4 -87 -11
-92 -16 -15 -15 10 -39 75 -72 37 -19 58 -35 58 -47 0 -9 -9 -51 -20 -92 -23
-86 -25 -121 -9 -137 18 -18 58 7 117 72 28 30 57 55 64 55 8 0 43 -20 79 -45
66 -46 89 -54 89 -33 0 7 -12 49 -26 92 l-27 79 63 57 c80 71 78 89 -7 91
-109 2 -112 4 -151 97 -19 45 -39 82 -44 82 -5 0 -16 -16 -24 -35z"/>
<path d="M7424 3752 c-27 -17 -48 -79 -50 -147 -2 -66 -4 -71 -36 -98 -65 -57
-82 -60 -343 -61 -192 -1 -246 -4 -269 -16 -76 -39 -23 -59 95 -35 72 15 96
16 195 4 131 -14 312 -7 397 15 51 14 61 14 80 1 54 -35 158 -65 228 -65 83 0
125 16 162 60 l28 32 67 -13 c81 -17 363 -18 442 -2 66 14 159 47 186 68 18
14 18 16 -23 54 -23 22 -54 43 -69 47 -16 4 -82 -3 -163 -19 -75 -15 -165 -29
-201 -32 -60 -5 -257 7 -348 20 -34 6 -39 3 -59 -29 -23 -35 -87 -80 -133 -91
-21 -5 -29 -1 -38 17 -10 20 -8 30 13 72 30 58 34 148 10 183 -24 34 -138 57
-171 35z"/>
<path d="M3129 2963 c-12 -27 -27 -64 -35 -84 l-15 -36 -90 -10 c-49 -6 -92
-13 -95 -15 -13 -14 14 -40 76 -72 l68 -36 -25 -96 c-29 -116 -28 -148 6 -152
19 -3 39 11 93 68 l68 72 80 -52 c44 -29 83 -50 87 -46 4 4 -4 41 -16 84 -13
42 -25 84 -27 92 -3 9 19 34 56 63 90 71 82 88 -43 97 l-78 5 -36 83 c-19 45
-40 82 -45 82 -5 0 -18 -21 -29 -47z"/>
<path d="M3754 2936 c-19 -41 -34 -79 -34 -84 0 -5 -41 -14 -90 -19 -50 -6
-94 -14 -98 -17 -16 -17 61 -75 129 -98 11 -4 9 -24 -10 -104 -27 -116 -26
-148 7 -152 18 -3 39 13 91 68 l68 71 78 -51 c44 -28 82 -47 87 -42 5 5 -2 43
-16 88 -14 43 -26 84 -26 91 0 7 21 28 47 48 59 45 79 73 64 88 -6 6 -48 14
-93 17 l-82 5 -35 83 c-20 45 -39 82 -44 82 -4 0 -24 -33 -43 -74z"/>
<path d="M4387 2928 l-35 -83 -86 -11 c-48 -6 -91 -15 -97 -21 -13 -13 37 -54
93 -78 20 -8 39 -19 42 -23 3 -5 -6 -55 -19 -112 -40 -165 -14 -183 98 -70 41
42 74 67 80 63 7 -4 43 -27 80 -51 38 -24 72 -40 77 -36 4 5 -5 48 -20 97
l-28 87 59 51 c90 78 79 99 -52 99 l-66 0 -35 82 c-19 45 -39 83 -45 85 -6 2
-26 -34 -46 -79z"/>
<path d="M11741 2914 c0 -11 3 -14 6 -6 3 7 2 16 -1 19 -3 4 -6 -2 -5 -13z"/>
<path d="M6748 2886 c-71 -29 -127 -73 -171 -134 -43 -58 -88 -147 -80 -156 4
-3 21 -6 38 -6 28 0 37 9 90 85 69 100 129 159 192 187 51 23 100 19 127 -10
15 -17 12 -21 -47 -59 -73 -46 -120 -101 -115 -134 5 -35 83 -71 155 -72 76 0
126 17 159 56 23 28 26 37 22 95 l-4 64 52 -4 c62 -5 110 -37 157 -105 39 -54
91 -74 140 -53 68 28 130 25 245 -16 90 -32 123 -38 207 -41 55 -2 138 -6 185
-10 103 -6 319 17 475 52 151 34 316 86 322 102 8 19 -43 92 -73 105 -22 10
-43 6 -137 -25 -172 -56 -514 -137 -579 -137 -13 0 -18 5 -15 14 8 21 -10 80
-35 111 -12 15 -42 41 -67 56 -81 52 -157 33 -176 -43 -8 -33 10 -95 37 -124
17 -19 17 -22 3 -28 -33 -12 -92 -6 -176 19 -46 14 -122 29 -169 32 -78 5 -88
8 -122 39 -68 61 -183 104 -277 104 -27 0 -51 6 -62 16 -54 49 -207 59 -301
20z m1227 -129 c-4 -14 -15 -33 -26 -43 -18 -16 -19 -16 -19 16 0 36 28 76 42
62 5 -5 6 -21 3 -35z m-975 -43 c0 -33 -56 -92 -72 -76 -12 12 2 38 41 80 28
28 31 28 31 -4z"/>
<path d="M11741 2834 c0 -11 3 -14 6 -6 3 7 2 16 -1 19 -3 4 -6 -2 -5 -13z"/>
<path d="M10373 2625 c0 -22 2 -30 4 -17 2 12 2 30 0 40 -3 9 -5 -1 -4 -23z"/>
</g>
</svg>
