<?xml version="1.0" standalone="no"?>
<!DOCTYPE svg PUBLIC "-//W3C//DTD SVG 20010904//EN"
 "http://www.w3.org/TR/2001/REC-SVG-20010904/DTD/svg10.dtd">
<svg version="1.0" xmlns="http://www.w3.org/2000/svg"
 width="1400.000000pt" height="1400.000000pt" viewBox="0 0 1400.000000 1400.000000"
 preserveAspectRatio="xMidYMid meet">

<g transform="translate(0.000000,1400.000000) scale(0.100000,-0.100000)"
fill="#000000" stroke="none">
<path d="M8145 12605 c-161 -29 -312 -36 -740 -33 -400 3 -462 1 -555 -15
-128 -22 -201 -55 -230 -103 -18 -28 -24 -59 -31 -172 -5 -75 -6 -158 -3 -183
l6 -46 -63 -7 c-35 -3 -90 -15 -123 -25 -34 -11 -99 -29 -146 -42 -47 -12 -94
-27 -105 -33 -11 -6 -22 -11 -25 -11 -3 -1 -16 -6 -30 -12 -14 -6 -43 -16 -65
-23 -94 -30 -153 -53 -202 -76 -28 -13 -56 -24 -61 -24 -9 0 -103 -39 -111
-46 -2 -2 1 -16 7 -31 6 -15 36 -92 67 -171 31 -78 53 -147 50 -152 -3 -6 -2
-10 3 -10 10 0 53 -113 55 -142 1 -10 5 -18 10 -18 5 0 7 -7 3 -15 -3 -8 -1
-15 4 -15 5 0 7 -6 4 -13 -3 -8 2 -20 11 -27 8 -7 15 -18 15 -24 0 -6 20 -65
45 -131 25 -66 45 -129 45 -140 0 -12 4 -25 9 -30 11 -12 48 -113 67 -180 40
-143 144 -439 234 -665 116 -290 256 -670 538 -1455 252 -700 388 -1043 418
-1057 43 -20 70 -2 117 75 94 152 348 619 564 1037 124 239 262 505 308 590
45 85 131 247 190 360 60 113 212 396 340 630 404 740 659 1234 650 1257 -3 9
0 11 7 7 7 -5 9 -2 5 9 -3 9 -1 17 6 20 19 6 -9 57 -31 57 -11 0 -31 9 -45 20
-14 11 -30 20 -35 20 -6 0 -35 20 -65 45 -30 24 -77 52 -104 61 -51 17 -243
104 -243 111 0 2 7 30 17 63 11 40 22 62 35 65 19 7 24 21 31 93 4 31 17 59
49 99 l43 56 0 98 c0 98 0 98 -34 133 -39 40 -104 76 -256 141 -184 79 -178
77 -415 80 -118 2 -224 2 -235 0z m570 -136 c66 -31 150 -69 188 -84 87 -35
107 -60 107 -134 0 -72 -44 -151 -84 -151 -28 0 -25 10 -55 -175 -13 -77 -19
-97 -20 -67 -2 75 -67 168 -143 205 -28 14 -29 16 -12 26 14 8 -51 10 -248 11
l-268 0 0 118 c0 162 -13 242 -42 266 -21 17 -35 18 -138 13 -127 -7 -259 -28
-311 -50 -46 -19 -96 -63 -115 -100 -10 -18 -18 -69 -21 -129 -6 -95 -7 -98
-27 -91 -12 5 -80 7 -153 5 -118 -3 -137 -1 -173 18 -58 30 -254 47 -347 32
-101 -17 -143 -31 -167 -55 l-22 -22 -3 133 c-3 155 3 172 76 204 98 43 171
49 758 59 308 5 598 13 645 18 47 4 168 8 270 7 l185 -1 120 -56z m-637 -66
c11 -14 13 -48 9 -153 -3 -111 -8 -144 -26 -187 -34 -78 -60 -97 -139 -103
-60 -4 -68 -8 -79 -31 l-13 -26 -36 33 c-19 19 -42 34 -50 34 -19 0 -18 10 4
26 25 19 5 33 -58 41 -48 6 -53 4 -47 -11 11 -28 -11 -8 -29 26 -14 27 -14 31
0 47 12 13 16 40 16 110 0 85 2 94 25 117 45 45 128 72 300 97 53 8 109 -1
123 -20z m-981 -309 l52 -7 31 -73 c16 -40 30 -79 30 -88 0 -28 -22 -28 -51 0
l-29 28 -6 -33 c-4 -17 -12 -30 -18 -28 -6 2 -16 -3 -23 -12 -10 -14 -13 -14
-31 3 -28 25 -53 17 -81 -27 -13 -20 -30 -37 -37 -37 -27 0 -114 131 -114 173
0 16 -10 38 -24 52 l-24 24 41 15 c44 15 193 20 284 10z m1133 -23 c19 -5 69
-12 111 -16 l76 -6 -20 -55 c-11 -30 -23 -54 -27 -54 -3 0 -16 14 -28 30 -13
17 -29 30 -37 30 -29 0 -113 22 -129 33 -11 8 -15 19 -10 30 7 19 15 20 64 8z
m-748 -20 c56 -1 58 -2 77 -39 20 -39 78 -77 154 -102 26 -8 45 -23 59 -46 16
-27 26 -34 51 -34 32 0 67 24 67 47 0 9 15 13 49 13 63 0 91 11 139 54 l38 35
80 -24 c67 -19 164 -59 164 -68 0 -1 -7 -37 -15 -80 -13 -67 -13 -83 -1 -112
17 -41 48 -59 90 -52 22 3 40 -1 57 -14 39 -30 98 -25 150 13 24 17 46 34 49
38 3 4 17 22 33 40 l28 32 77 -31 c42 -17 122 -47 177 -67 94 -34 300 -131
338 -159 16 -11 14 -17 -18 -71 -32 -52 -40 -74 -36 -97 1 -7 -89 -194 -140
-292 -12 -22 -75 -146 -139 -276 -65 -130 -129 -247 -142 -259 -13 -13 -17
-20 -10 -16 10 6 10 2 1 -18 -7 -14 -16 -23 -22 -19 -6 3 -7 1 -3 -5 7 -11
-19 -72 -30 -72 -3 0 -2 5 2 12 4 7 3 8 -5 4 -7 -4 -10 -13 -8 -19 2 -6 -5
-19 -15 -29 -10 -10 -16 -24 -12 -30 4 -6 -1 -17 -11 -25 -11 -7 -16 -13 -12
-13 7 0 -14 -42 -70 -137 -14 -24 -29 -43 -34 -43 -5 0 -9 -11 -9 -25 0 -14
-4 -25 -10 -25 -5 0 -10 -7 -10 -15 0 -8 -4 -15 -9 -15 -5 0 -12 -9 -16 -19
-3 -11 -16 -34 -28 -53 -13 -18 -34 -53 -47 -78 -14 -25 -30 -48 -37 -52 -16
-11 -63 -98 -226 -418 -156 -307 -291 -555 -517 -955 -152 -270 -325 -593
-416 -777 l-48 -98 -34 98 c-95 274 -313 865 -457 1242 -229 597 -576 1521
-753 2005 -83 226 -184 502 -226 614 -42 113 -75 205 -73 207 13 11 461 172
557 199 152 44 328 76 352 64 9 -5 39 -9 67 -9 42 0 51 -3 51 -17 1 -33 113
-177 152 -196 35 -17 39 -17 73 -1 20 9 40 24 45 34 6 11 18 15 38 12 21 -3
37 4 61 24 22 18 45 28 68 28 27 1 41 8 56 28 20 27 20 29 3 85 -9 32 -19 65
-22 73 -4 13 9 14 98 9 57 -4 129 -7 160 -8z m1194 -19 c58 -42 122 -119 134
-161 14 -51 13 -64 -6 -57 -60 23 -94 14 -94 -26 0 -11 -24 -43 -54 -72 -43
-41 -61 -52 -87 -51 -30 0 -35 4 -49 44 -8 24 -21 46 -28 49 -7 2 -26 -10 -42
-28 -56 -60 -66 -12 -21 103 15 41 36 106 46 145 17 70 17 71 53 75 93 10 109
7 148 -21z m-966 -45 c13 -5 13 -6 -1 -6 -8 -1 -24 6 -35 15 -19 15 -19 15 1
6 11 -5 27 -12 35 -15z"/>
<path d="M7659 12080 c28 -24 90 -26 131 -5 17 9 30 18 30 20 0 3 -42 5 -92 5
l-93 -1 24 -19z"/>
<path d="M7865 12075 c48 -30 95 -32 119 -6 10 11 28 22 40 24 14 3 10 5 -12
6 -18 0 -41 -4 -52 -11 -15 -10 -26 -10 -53 0 -18 7 -44 12 -58 12 -21 -1 -20
-3 16 -25z"/>
<path d="M7954 12020 c-12 -5 -25 -14 -29 -21 -9 -14 28 -7 79 16 l31 13 -30
1 c-16 0 -40 -4 -51 -9z"/>
<path d="M6665 11290 c-3 -5 2 -24 11 -42 17 -34 101 -139 137 -170 21 -20 82
-24 92 -8 8 13 -125 163 -179 202 -42 30 -52 33 -61 18z"/>
<path d="M7215 11191 c-22 -10 -68 -48 -101 -84 -145 -158 -235 -448 -238
-762 -1 -170 8 -195 75 -195 49 0 83 17 128 64 l35 36 255 -1 256 0 23 -29
c31 -40 38 -104 18 -173 -30 -105 -30 -106 146 -168 102 -36 121 -40 133 -28
8 8 44 111 80 229 37 118 89 284 116 368 37 114 47 157 39 171 -12 23 -125 72
-171 74 -28 2 -37 -4 -57 -35 l-24 -36 -60 76 c-84 107 -400 418 -477 470 -72
48 -111 53 -176 23z m69 -124 c-1 -47 -7 -117 -14 -155 l-11 -70 -45 -5 c-91
-10 -154 -93 -154 -203 0 -56 26 -124 47 -124 5 0 14 -4 22 -9 11 -7 0 -35
-53 -137 -79 -152 -98 -180 -116 -169 -20 12 -6 325 20 445 26 120 58 218 75
227 7 5 29 42 49 83 21 41 49 91 64 110 36 49 94 101 107 97 6 -3 9 -38 9 -90z
m381 -238 c180 -186 225 -249 225 -311 0 -38 -51 -152 -83 -186 -46 -50 -59
-52 -329 -51 -139 0 -272 4 -295 7 l-41 7 44 75 c92 158 171 408 195 613 l12
106 86 -78 c47 -44 131 -125 186 -182z m409 -185 c9 -3 16 -14 16 -24 0 -10
-43 -154 -95 -321 -53 -167 -101 -324 -107 -347 -6 -24 -16 -46 -23 -48 -12
-5 -125 34 -125 43 0 3 10 36 21 75 24 78 21 127 -10 169 -19 25 -19 28 -3 41
9 8 36 20 58 26 77 22 110 63 149 182 10 30 18 69 17 86 -1 19 4 34 12 37 8 3
24 24 37 46 24 43 27 45 53 35z"/>
<path d="M6533 10913 c-28 -11 -8 -24 84 -53 93 -30 180 -38 176 -16 -2 12
-199 76 -228 75 -11 0 -26 -3 -32 -6z"/>
<path d="M6646 10579 c-97 -21 -108 -25 -86 -39 27 -17 197 23 193 45 -3 15
-12 15 -107 -6z"/>
<path d="M9695 10980 c-3 -5 -14 -10 -24 -10 -35 0 -49 -22 -273 -430 -185
-335 -195 -355 -368 -690 -180 -347 -602 -1143 -770 -1450 -376 -689 -750
-1404 -750 -1434 0 -27 25 -46 59 -46 17 0 80 15 139 34 59 19 148 45 197 56
81 20 148 37 330 86 165 45 466 149 730 254 99 39 350 147 372 159 10 6 39 20
66 31 26 10 47 25 47 31 0 7 3 10 6 6 4 -3 29 6 57 20 58 29 515 197 910 334
794 276 1342 482 1331 501 -4 6 2 8 16 3 15 -5 20 -4 16 4 -5 7 -1 9 8 5 9 -3
17 -2 17 2 1 5 3 18 4 30 1 11 7 29 13 39 12 22 -14 102 -42 130 -9 9 -16 21
-16 27 0 19 -187 382 -266 518 -43 74 -86 149 -94 165 -8 17 -18 32 -21 35 -4
3 -28 41 -55 85 -26 44 -52 82 -56 83 -4 2 -8 10 -8 18 0 8 -4 14 -10 14 -5 0
-10 7 -10 15 0 9 -7 18 -15 21 -8 4 -15 12 -15 19 0 6 -13 30 -28 51 -16 21
-31 46 -34 54 -41 108 -640 700 -930 917 -194 147 -518 337 -533 313z m240
-212 c194 -127 484 -343 620 -463 464 -410 826 -915 1127 -1572 116 -255 113
-246 89 -233 -14 7 -34 5 -72 -9 -30 -10 -112 -33 -184 -50 -154 -39 -159 -40
-153 -46 3 -3 53 6 112 21 60 14 110 23 113 20 3 -3 -8 -8 -23 -11 -16 -4 -40
-10 -54 -15 -14 -4 -34 -11 -45 -15 -11 -3 -20 -5 -20 -3 -1 2 -12 -4 -26 -13
-14 -9 -42 -19 -63 -22 -38 -5 -75 -27 -46 -27 7 0 11 -3 8 -6 -4 -3 -16 -1
-27 6 -12 6 -27 8 -33 4 -7 -5 -28 -9 -48 -10 -25 -2 -15 4 40 22 101 32 102
33 96 43 -3 5 -50 -4 -103 -21 -54 -16 -127 -38 -163 -49 -36 -11 -74 -23 -85
-28 -11 -4 -47 -16 -80 -27 -53 -16 -112 -44 -92 -44 4 0 46 14 94 30 48 17
96 32 108 34 11 2 38 9 60 14 51 13 84 20 68 15 -7 -3 -13 -9 -13 -14 0 -6 5
-7 12 -3 6 4 8 3 5 -4 -4 -5 -15 -9 -25 -7 -9 1 -25 -4 -34 -12 -9 -8 -22 -12
-28 -8 -6 4 -19 0 -29 -9 -9 -8 -26 -17 -37 -19 -10 -2 -32 -10 -49 -16 -16
-7 -77 -30 -134 -51 -109 -41 -134 -55 -101 -57 11 -1 20 2 20 7 0 4 37 22 83
38 45 17 90 33 100 37 10 4 17 3 17 -4 0 -6 -8 -11 -17 -11 -9 0 -24 -6 -32
-13 -25 -21 -101 -46 -118 -40 -10 4 -14 2 -10 -4 9 -14 -58 -34 -72 -20 -7 7
-25 4 -58 -9 -26 -10 -52 -17 -57 -16 -5 2 -17 -5 -27 -14 -10 -9 -23 -13 -30
-8 -8 4 -10 3 -5 -4 5 -8 1 -10 -10 -5 -14 5 -13 8 7 25 l24 19 -33 -16 -33
-16 23 -20 23 -20 -22 11 c-14 6 -23 7 -23 1 0 -5 6 -12 13 -15 6 -3 0 -3 -15
-1 -16 2 -28 0 -28 -4 0 -4 -13 -8 -30 -9 -41 -3 -38 5 10 24 22 9 40 20 40
25 0 5 -22 -3 -50 -18 -27 -14 -47 -30 -44 -34 7 -11 -30 -29 -60 -29 -14 0
-30 -8 -35 -17 -6 -10 -11 -12 -11 -6 0 9 -15 7 -52 -8 -63 -24 -174 -60 -398
-127 -378 -113 -482 -147 -615 -199 -77 -30 -210 -79 -295 -110 -195 -69 -204
-73 -325 -124 -55 -23 -199 -77 -320 -119 -174 -61 -473 -173 -629 -236 -16
-6 -18 -4 -11 12 4 10 14 36 21 57 24 64 387 782 439 867 12 19 27 50 34 67 7
18 17 30 22 27 5 -3 9 4 9 15 0 11 6 26 13 33 6 7 31 51 55 98 48 96 63 122
79 141 6 8 28 48 49 89 20 41 40 77 43 80 8 6 108 168 143 230 14 25 74 140
133 255 147 287 305 582 510 950 187 337 280 509 429 797 l97 187 42 -28 c23
-16 114 -75 202 -133z m1166 -2524 c-30 -13 -56 -22 -59 -19 -3 2 8 10 24 16
16 6 38 15 49 19 47 20 35 7 -14 -16z m-96 -34 c-3 -5 -16 -10 -28 -9 -21 0
-21 1 -2 9 28 12 37 12 30 0z m-359 -135 c-11 -8 -22 -12 -25 -9 -6 6 19 24
34 24 6 -1 1 -7 -9 -15z"/>
<path d="M9480 9370 c-30 -5 -82 -14 -115 -22 -58 -14 -60 -16 -72 -56 -14
-49 -29 -244 -38 -477 -6 -156 -6 -161 16 -189 22 -28 24 -28 106 -24 l83 4 0
-25 c1 -66 71 -165 143 -202 52 -27 133 -28 183 -2 47 24 91 91 102 153 l8 45
184 7 c102 4 192 8 200 9 8 1 66 -2 128 -6 l113 -8 19 -38 c35 -68 124 -120
209 -122 105 -2 195 67 208 160 l5 38 58 -3 58 -4 6 39 c3 21 8 75 12 119 8
114 -6 142 -156 300 -183 193 -198 201 -331 184 -46 -5 -87 -14 -92 -19 -15
-15 58 -26 153 -24 l85 2 140 -140 139 -139 3 -124 3 -124 -45 -4 c-43 -3 -47
-1 -70 33 -33 50 -104 84 -175 83 -86 -1 -159 -47 -198 -125 -23 -46 -45 -44
-54 6 -4 22 -7 135 -7 251 -1 116 -4 226 -7 244 -7 33 -29 49 -44 34 -5 -5
-11 -135 -12 -288 l-3 -278 -110 7 c-154 9 -186 9 -310 0 l-110 -8 -24 57
c-32 77 -77 108 -156 107 -102 -1 -205 -68 -205 -133 0 -18 -11 -23 -23 -12
-4 4 -42 6 -86 5 l-79 -2 2 325 c1 316 2 325 21 330 11 3 70 12 130 21 95 14
167 15 528 9 l417 -7 0 -37 c0 -48 25 -73 46 -45 8 10 14 31 14 47 0 18 5 28
15 28 20 0 19 14 -2 31 -13 11 -104 14 -487 15 -259 1 -496 -2 -526 -6z m1386
-641 c23 -19 35 -81 23 -122 -12 -44 -68 -103 -115 -123 -18 -8 -56 -14 -84
-14 -58 0 -83 19 -99 75 -11 40 -1 61 59 128 57 65 171 94 216 56z m-1044 -20
c18 -10 20 -17 14 -67 -8 -72 -48 -144 -99 -179 -33 -23 -49 -27 -97 -26 -71
1 -106 22 -120 72 -15 53 -12 60 9 26 17 -29 61 -74 61 -63 0 3 -7 19 -16 37
-48 96 68 232 184 217 24 -3 52 -11 64 -17z"/>
<path d="M10686 8644 c-22 -22 -20 -41 9 -69 31 -32 55 -32 55 -2 0 12 7 33
16 45 14 21 14 23 -11 32 -36 14 -51 13 -69 -6z"/>
<path d="M9658 8626 c-29 -36 -38 -98 -17 -112 17 -10 60 42 75 91 7 24 10 46
7 49 -15 14 -40 3 -65 -28z"/>
<path d="M10604 9131 c-24 -10 -44 -75 -44 -141 0 -34 4 -42 26 -50 28 -11
110 -13 166 -4 35 6 37 8 43 55 4 26 4 57 0 68 -14 46 -141 93 -191 72z m61
-154 c13 -3 9 -5 -12 -6 -24 -1 -33 3 -33 15 0 12 3 14 13 6 6 -5 21 -12 32
-15z"/>
<path d="M10785 8210 c-3 -6 1 -7 9 -4 18 7 21 14 7 14 -6 0 -13 -4 -16 -10z"/>
<path d="M10660 8155 c-14 -8 -20 -14 -15 -14 6 0 21 6 35 14 14 8 21 14 15
14 -5 0 -21 -6 -35 -14z"/>
<path d="M10560 8110 c-8 -5 -10 -10 -5 -10 6 0 17 5 25 10 8 5 11 10 5 10 -5
0 -17 -5 -25 -10z"/>
<path d="M5416 10789 c-119 -40 -478 -218 -649 -321 -299 -181 -548 -378 -818
-647 -359 -360 -624 -721 -857 -1170 -67 -128 -84 -155 -104 -156 -218 -17
-310 -103 -402 -375 -53 -159 -61 -218 -48 -351 7 -65 8 -117 3 -123 -5 -6
-44 -94 -86 -196 -43 -102 -81 -186 -86 -188 -5 -2 -9 -10 -9 -17 0 -8 -18
-51 -39 -97 -31 -64 -49 -127 -81 -278 -27 -131 -47 -201 -59 -215 -83 -90
-239 -423 -300 -640 -203 -724 -183 -1405 54 -1892 48 -99 99 -174 109 -162
23 26 24 48 4 85 -11 21 -26 43 -34 49 -50 39 -189 444 -198 582 -2 28 -6 55
-8 60 -2 4 -6 42 -8 83 -8 165 -7 194 31 620 21 243 92 504 219 800 55 129
121 265 104 215 -3 -11 -9 -98 -12 -192 l-5 -173 27 0 c18 0 29 7 35 23 5 12
19 123 31 247 45 463 107 708 274 1085 95 216 95 215 157 215 51 0 51 0 44
-27 -102 -398 -154 -929 -126 -1283 15 -195 62 -471 86 -510 3 -6 0 -10 -7
-10 -7 0 -31 -9 -52 -21 -31 -17 -43 -18 -69 -10 -71 25 -140 7 -207 -54 -14
-12 -36 -26 -50 -30 -136 -40 -194 -280 -94 -388 14 -15 29 -25 33 -22 20 12
17 56 -5 96 -42 72 -26 170 36 232 24 22 48 37 63 37 16 0 34 12 51 35 49 64
133 79 190 34 23 -18 24 -18 55 11 17 17 42 30 55 30 33 0 59 -27 51 -54 -4
-12 -7 -27 -7 -33 -1 -7 -5 -13 -10 -13 -4 0 -19 -18 -34 -39 -16 -25 -40 -45
-65 -55 -54 -22 -60 -21 -48 10 27 73 -50 135 -102 83 -17 -17 -20 -29 -16
-63 3 -23 9 -50 13 -59 10 -28 -71 -23 -121 8 -22 13 -43 25 -47 25 -4 0 8
-27 25 -61 24 -47 32 -75 33 -127 2 -37 6 -66 11 -65 13 3 25 75 18 118 l-6
40 44 -3 c26 -2 57 2 73 11 16 8 47 18 69 22 21 3 52 13 66 21 26 13 29 12 49
-13 21 -27 21 -27 2 -34 -11 -4 -23 -13 -27 -20 -6 -9 1 -10 28 -5 35 7 36 6
70 -56 74 -134 100 -294 55 -335 -32 -28 -54 -35 -127 -38 -35 -1 -66 -6 -70
-11 -12 -17 -50 -15 -118 6 -47 14 -80 19 -109 14 -41 -6 -43 -5 -73 36 -67
92 -61 145 19 169 34 10 41 16 38 34 -3 20 -9 22 -57 22 -49 -1 -56 -4 -87
-38 -45 -49 -46 -106 -5 -193 41 -87 83 -117 161 -115 32 0 83 -5 112 -13 52
-13 141 -9 197 9 17 5 29 1 48 -17 39 -37 89 -127 118 -213 25 -74 27 -89 22
-200 -3 -89 -10 -134 -26 -175 -11 -30 -33 -95 -47 -145 -14 -49 -29 -94 -34
-99 -5 -5 -32 -17 -61 -27 -65 -23 -116 -62 -136 -104 -31 -64 3 -107 87 -107
39 0 73 35 126 130 30 55 32 56 100 74 162 42 314 69 333 58 11 -5 29 -36 41
-67 21 -55 82 -276 77 -278 -12 -4 -75 -37 -87 -45 -31 -20 -172 -100 -177
-100 -2 0 -37 -20 -76 -44 -110 -66 -196 -107 -210 -100 -7 4 -9 3 -4 -1 9
-10 -51 -37 -64 -29 -5 3 -9 0 -9 -6 0 -6 -6 -10 -12 -9 -7 1 -24 -3 -38 -9
-37 -17 -147 -30 -210 -26 -70 5 -157 48 -187 93 -34 50 -43 94 -53 261 -10
177 0 407 34 765 24 252 23 275 -11 275 -23 0 -39 -56 -63 -215 -42 -274 -38
-917 5 -1063 20 -67 77 -124 148 -149 54 -18 195 -24 248 -10 l27 7 -19 -37
c-38 -74 -13 -208 59 -319 52 -80 182 -216 256 -268 125 -87 211 -94 292 -24
58 51 78 101 79 193 0 57 -5 90 -17 114 l-18 34 52 -6 c28 -4 71 -2 96 4 61
13 160 64 201 102 50 48 105 137 136 222 l28 75 40 -48 c127 -147 383 -392
552 -527 145 -115 429 -308 546 -371 22 -12 48 -29 57 -38 10 -9 24 -16 30
-16 7 0 12 -4 12 -8 0 -5 21 -19 48 -32 26 -13 58 -31 72 -40 43 -30 140 -80
154 -80 8 0 16 -3 18 -7 3 -8 72 -42 86 -43 4 -1 16 -7 27 -14 28 -18 55 -27
55 -18 0 4 -26 18 -58 31 -31 14 -64 30 -72 37 -8 7 -34 20 -57 30 -24 10 -43
22 -43 26 0 4 37 -9 83 -29 159 -69 203 -86 360 -143 87 -31 157 -61 155 -66
-2 -5 8 -10 22 -11 23 -2 23 -2 5 6 -14 7 -15 10 -5 10 9 1 24 -5 35 -13 18
-12 35 -16 125 -33 14 -2 60 -13 104 -24 157 -40 318 -69 528 -93 117 -14 240
-30 273 -36 226 -36 549 -34 800 5 50 8 128 19 175 26 366 49 905 219 1301
407 246 118 628 349 614 372 -3 6 0 7 8 4 8 -3 18 0 23 7 5 8 3 10 -7 4 -8 -5
-11 -4 -6 0 4 5 18 10 31 12 23 3 23 2 18 -66 -4 -59 -1 -77 21 -124 27 -60
98 -122 174 -152 l43 -17 -26 -34 c-56 -73 -34 -154 54 -202 90 -50 205 -37
362 40 98 48 228 164 216 193 -3 9 -2 25 4 35 8 15 28 19 112 25 148 10 368
49 478 84 149 48 264 125 349 234 31 40 68 72 116 100 77 46 200 157 211 189
11 35 -50 55 -63 21 -24 -66 -195 -203 -252 -203 -11 0 -24 -6 -28 -13 -10
-17 -80 -37 -128 -37 -21 0 -77 -7 -124 -16 -151 -29 -300 -1 -496 90 l-70 33
100 50 c127 65 312 177 345 209 21 21 23 26 10 34 -32 20 -67 9 -125 -42 -41
-36 -95 -69 -245 -151 -207 -113 -239 -129 -250 -122 -6 3 -10 2 -10 -3 0 -8
-43 -25 -52 -21 -2 0 -27 -9 -57 -21 -29 -11 -56 -18 -59 -15 -3 2 -11 0 -18
-5 -6 -6 -16 -10 -20 -9 -5 2 -36 -3 -69 -11 -39 -9 -130 -14 -265 -14 -195
-1 -210 0 -304 27 -216 60 -539 171 -566 194 -53 44 -48 109 18 258 20 44 37
82 38 84 2 2 72 -24 156 -57 288 -114 447 -147 668 -139 189 6 288 37 505 158
134 74 370 231 444 293 96 83 136 101 221 100 155 -2 152 -1 177 -53 75 -157
139 -222 343 -349 228 -141 316 -239 328 -363 3 -38 9 -48 26 -53 50 -13 54
-9 66 66 26 154 -5 343 -82 490 -32 63 -45 78 -63 78 -35 0 -35 -19 0 -108 38
-93 65 -202 65 -261 l0 -40 -54 58 c-52 54 -107 94 -307 224 -139 91 -248 213
-303 340 -37 84 -38 109 -11 162 17 31 23 54 19 71 -9 35 -60 74 -96 74 l-31
0 7 83 c4 45 10 91 12 102 4 15 -4 25 -33 40 -48 25 -134 105 -180 167 -19 26
-39 48 -43 48 -16 0 -31 -40 -24 -62 9 -28 128 -143 182 -175 l42 -25 -4 -52
c-3 -28 -8 -86 -11 -129 l-7 -78 32 16 c69 36 140 -3 93 -51 -14 -14 -18 -34
-18 -91 0 -57 -3 -72 -13 -68 -8 3 -51 5 -95 6 -89 1 -150 -19 -198 -63 -57
-52 -232 -183 -244 -183 -7 0 -25 -13 -39 -28 -14 -15 -32 -27 -41 -27 -8 0
-15 -4 -15 -9 0 -5 -15 -14 -32 -22 -18 -7 -37 -19 -41 -26 -5 -7 -12 -11 -16
-8 -5 2 -14 -2 -21 -10 -7 -8 -18 -15 -25 -15 -8 0 -26 -6 -42 -14 -52 -27
-248 -104 -308 -122 -88 -27 -315 -25 -446 4 -100 22 -327 93 -459 143 -66 26
-76 27 -86 14 -6 -8 -20 -15 -32 -15 -16 0 -26 15 -48 73 -30 77 -66 122 -107
132 -68 17 -123 -43 -112 -122 l6 -42 -48 -5 c-88 -10 -216 -46 -260 -72 -104
-61 -89 -179 31 -249 50 -29 155 -59 299 -85 100 -18 109 -22 139 -55 41 -48
84 -68 198 -94 99 -23 369 -99 383 -108 5 -3 -16 -22 -46 -42 -30 -20 -68 -50
-84 -66 -17 -17 -79 -57 -138 -90 -59 -32 -112 -63 -118 -69 -27 -26 -717
-232 -1077 -321 -265 -66 -647 -138 -845 -161 -33 -3 -69 -9 -80 -11 -11 -3
-26 -5 -32 -5 -7 -1 -13 -5 -13 -9 0 -5 -6 -6 -13 -3 -8 3 -49 1 -91 -5 -87
-10 -357 6 -551 35 -17 2 -70 8 -120 14 -400 43 -898 196 -1318 406 -146 73
-360 202 -522 316 -124 87 -365 274 -365 284 0 8 503 562 645 710 22 23 76 81
120 129 44 49 104 113 132 144 29 31 53 60 53 64 0 4 17 25 38 46 20 20 66 70
102 110 36 40 71 79 79 87 7 8 11 18 7 21 -3 4 -7 4 -9 2 -1 -2 -22 -26 -46
-54 -109 -125 -389 -420 -332 -350 18 22 49 60 69 85 20 25 82 98 137 164 55
65 127 151 160 191 229 279 546 647 552 641 3 -2 31 31 64 74 32 43 105 132
161 197 173 197 459 532 619 725 83 101 191 226 239 278 47 52 107 118 131
145 l44 51 215 68 c283 90 570 190 952 332 172 64 426 156 563 204 138 49 354
125 480 170 127 45 424 149 660 230 795 273 1281 451 1268 463 -4 5 0 5 10 1
9 -3 17 -1 17 5 0 6 7 8 17 4 12 -5 14 -3 8 7 -5 8 -3 11 5 8 33 -11 182 -679
225 -1008 27 -210 37 -511 25 -725 -11 -175 -20 -251 -64 -513 -36 -217 -115
-518 -210 -805 -58 -174 -63 -192 -45 -167 9 12 9 11 4 -5 -4 -11 -9 -28 -12
-37 -4 -12 -10 -15 -27 -9 -40 15 -145 13 -203 -4 -139 -41 -191 -110 -258
-348 -13 -43 -30 -74 -67 -114 -54 -60 -58 -86 -15 -91 22 -3 27 -7 22 -20 -4
-9 -9 -48 -12 -87 -11 -143 30 -202 164 -235 45 -11 102 -29 127 -40 41 -17
47 -17 61 -4 11 11 12 20 5 34 -11 21 -94 62 -160 80 -73 20 -97 36 -111 77
-11 36 -11 38 16 58 67 48 135 107 135 116 0 19 -33 22 -83 6 -28 -9 -53 -15
-55 -12 -2 2 2 32 10 67 9 43 18 63 28 63 18 0 26 33 11 48 -6 6 -11 19 -11
28 0 32 18 30 40 -6 12 -19 28 -35 36 -35 20 0 18 4 -21 66 -34 52 -35 57 -24
97 28 107 100 175 207 198 111 23 252 -38 332 -145 54 -72 82 -156 115 -344
40 -234 77 -336 171 -468 41 -58 147 -164 164 -164 4 0 10 14 12 31 4 26 -2
36 -41 70 -153 134 -243 337 -275 619 -21 186 -119 360 -239 425 l-50 28 34
11 c37 12 59 46 64 99 1 18 15 70 29 117 68 218 88 290 116 424 6 27 17 54 24
60 19 15 45 136 56 264 5 59 13 121 18 137 l8 30 97 3 c107 3 103 5 112 -63 3
-22 7 -51 9 -65 17 -101 -8 -556 -44 -815 -17 -121 -34 -284 -37 -361 -6 -136
-5 -142 15 -153 36 -19 48 7 62 139 7 70 16 120 22 118 17 -6 116 -231 160
-361 82 -244 89 -459 22 -667 -32 -100 -31 -110 6 -110 24 0 31 5 36 28 3 15
12 54 20 87 20 80 34 304 29 441 -3 85 -10 128 -29 180 -13 38 -53 150 -89
249 -37 106 -82 209 -107 250 l-42 70 16 215 c44 579 26 783 -94 1019 -17 36
-43 105 -56 155 -12 50 -28 107 -34 126 -5 19 -10 88 -10 153 0 242 -34 669
-71 889 -33 199 -97 432 -163 594 -17 41 -18 41 -81 48 -51 5 -74 2 -122 -15
-32 -12 -60 -25 -63 -28 -6 -9 -165 -71 -179 -71 -6 0 -11 -4 -11 -10 0 -5 -3
-9 -7 -8 -9 1 -32 -7 -81 -28 -18 -8 -38 -14 -45 -14 -7 0 -87 -29 -179 -64
-233 -91 -474 -176 -498 -176 -12 0 -37 -7 -58 -17 -20 -9 -40 -15 -44 -15 -5
1 -8 -2 -8 -7 0 -5 -15 -13 -32 -17 -18 -4 -37 -9 -43 -10 -16 -5 -138 -46
-160 -54 -11 -5 -54 -18 -95 -30 -41 -12 -96 -29 -122 -37 -25 -7 -58 -16 -73
-19 -32 -6 -169 -51 -265 -87 -315 -119 -639 -234 -1050 -372 -489 -164 -820
-281 -1008 -354 l-103 -40 -8 22 c-5 12 -29 81 -54 152 -43 121 -59 167 -150
415 -42 113 -110 287 -137 350 -10 25 -31 77 -45 115 -15 39 -33 84 -40 100
-8 17 -21 53 -30 80 -10 28 -26 68 -36 89 -11 22 -19 46 -19 53 0 7 -4 21 -10
31 -5 9 -26 62 -46 117 -20 55 -44 120 -54 145 -10 25 -53 133 -95 240 -42
107 -82 209 -90 225 -43 99 -177 418 -189 451 -8 21 -29 73 -46 114 -17 41
-96 246 -175 455 -296 787 -416 1082 -435 1070 -24 -15 -22 -75 5 -144 14 -38
30 -71 34 -73 16 -7 93 -222 147 -407 133 -465 353 -1119 557 -1661 168 -443
282 -731 439 -1105 92 -219 103 -246 128 -300 41 -87 63 -140 61 -144 -2 -2 3
-7 11 -12 7 -5 13 -14 14 -21 2 -25 16 -68 23 -68 4 0 13 -17 20 -37 7 -21 32
-76 55 -123 23 -47 48 -106 55 -131 l13 -46 -56 -57 c-30 -32 -58 -67 -62 -78
-7 -22 -371 -482 -425 -537 -9 -9 -20 -23 -25 -32 -8 -15 -62 -80 -119 -144
-11 -12 -25 -31 -32 -41 -6 -11 -16 -18 -23 -16 -6 1 -9 -1 -6 -6 2 -4 -6 -21
-20 -38 -14 -16 -22 -22 -18 -14 7 13 5 13 -9 1 -9 -7 -14 -17 -12 -22 3 -4
-4 -13 -15 -19 -11 -6 -17 -16 -14 -22 4 -6 3 -8 -3 -5 -6 4 -17 -1 -24 -10
-12 -14 -12 -16 1 -9 8 4 -4 -10 -27 -32 -24 -22 -43 -44 -43 -50 0 -6 -10
-18 -22 -27 -13 -8 -23 -21 -23 -28 0 -6 -10 -16 -23 -22 -12 -5 -25 -18 -28
-27 -3 -10 -10 -18 -15 -18 -5 0 -9 -7 -9 -15 0 -8 -5 -15 -11 -15 -13 0 -55
-51 -51 -63 1 -5 -1 -6 -6 -3 -12 7 -212 -199 -315 -325 -385 -474 -379 -467
-772 -909 -337 -379 -359 -404 -553 -643 l-154 -188 -106 100 c-174 160 -512
521 -512 544 0 3 17 11 38 18 20 6 76 31 123 55 115 57 174 125 139 160 -8 8
-7 19 1 37 9 21 9 36 1 66 -7 21 -12 48 -12 61 0 12 -22 46 -50 78 -27 31 -50
59 -50 63 0 5 -27 16 -60 25 -33 9 -60 21 -60 26 0 5 -6 8 -12 5 -7 -2 -37 7
-67 19 -61 27 -138 31 -180 10 -15 -8 -40 -33 -56 -55 -15 -23 -31 -41 -35
-41 -3 0 -14 15 -23 33 -10 17 -37 69 -60 114 -57 108 -114 236 -120 269 -2
11 -6 26 -10 34 -3 8 -13 44 -22 80 -9 36 -39 115 -67 175 -27 61 -81 200
-118 310 -37 110 -85 237 -105 283 -28 64 -34 90 -30 116 8 39 -14 89 -45 106
-15 8 -18 17 -13 40 5 30 -23 206 -37 225 -9 13 -28 165 -39 315 -10 144 2
521 23 705 24 202 66 422 97 500 4 11 10 38 14 60 8 53 41 162 76 256 16 42
29 81 29 87 0 7 4 20 9 30 11 22 26 59 41 102 30 86 184 394 333 665 352 642
897 1194 1598 1618 136 82 380 210 533 278 143 65 166 79 166 107 0 19 -38 14
-134 -19z m-2446 -2386 c0 -14 -63 -153 -69 -153 -3 0 -13 15 -21 32 -25 53
-106 63 -130 17 -6 -11 -16 -47 -21 -81 -5 -33 -27 -97 -49 -141 -36 -76 -38
-83 -23 -99 45 -50 90 10 124 169 23 105 40 136 61 115 8 -8 12 -38 11 -80 -1
-52 -15 -111 -65 -264 -60 -187 -64 -197 -86 -191 -12 3 -36 0 -53 -7 -20 -9
-33 -10 -40 -3 -5 5 -15 51 -22 102 -10 80 -9 101 6 156 9 36 27 81 41 102 13
21 34 69 46 106 37 115 98 176 210 211 51 17 80 19 80 9z m8830 -2226 c0 -8
22 -58 49 -113 27 -54 48 -100 47 -101 -6 -6 -156 -10 -156 -4 0 28 45 231 52
231 4 0 8 -6 8 -13z m-9296 -535 c8 -13 -5 -52 -15 -46 -12 7 -12 54 0 54 6 0
12 -4 15 -8z m219 -62 c3 -11 3 -20 1 -20 -2 0 -8 9 -14 20 -6 11 -7 20 -2 20
6 0 12 -9 15 -20z m347 -875 c46 -115 114 -268 150 -340 64 -127 76 -174 42
-160 -68 29 -64 29 -243 -19 -96 -25 -177 -46 -181 -46 -3 0 6 37 19 83 86
296 64 531 -69 724 l-28 42 29 15 c43 23 78 70 86 117 l7 42 52 -124 c28 -68
90 -218 136 -334z m560 -387 c41 -11 86 -27 100 -35 l25 -14 -25 6 c-14 3 -67
9 -118 12 l-94 6 4 -29 c3 -28 5 -29 53 -27 28 1 75 -3 105 -9 30 -6 62 -12
70 -13 33 -3 90 -27 85 -35 -3 -5 1 -10 7 -13 9 -3 8 -7 -4 -12 -15 -6 -15
-10 4 -41 l20 -35 -41 -38 -41 -38 25 -13 c14 -7 25 -19 25 -26 0 -23 -123
-73 -270 -109 -80 -20 -152 -38 -162 -41 -13 -4 -17 5 -23 48 -3 29 -17 99
-31 156 l-25 103 52 92 c86 152 73 140 132 132 29 -4 86 -16 127 -27z m7320
-178 c-37 -25 -50 -31 -50 -20 0 6 10 15 23 20 30 12 45 12 27 0z m-8228 -132
c-17 -24 -42 -54 -56 -67 -22 -21 -29 -23 -51 -13 -14 6 -25 16 -25 20 0 32
98 102 143 102 15 0 14 -6 -11 -42z m863 -375 c59 -99 63 -118 40 -202 -35
-133 -106 -221 -208 -259 -201 -76 -435 -36 -647 108 -30 21 -66 50 -79 64
-14 14 -30 26 -37 26 -6 0 -16 6 -22 13 -9 11 4 18 61 36 79 26 198 83 382
183 240 131 262 140 343 144 41 1 77 6 81 9 7 8 18 -7 86 -122z m5514 -158
c20 -38 43 -79 50 -91 12 -18 10 -29 -18 -88 -18 -37 -38 -95 -45 -129 l-13
-62 -54 3 c-30 2 -67 7 -84 12 -16 5 -57 13 -90 18 -64 11 -164 52 -184 76 -7
8 -15 33 -18 54 -4 33 -2 41 22 56 52 34 157 66 246 76 50 5 97 14 105 21 9 7
14 32 14 71 0 81 21 75 69 -17z m1669 -604 c136 -91 287 -126 497 -118 82 3
158 13 205 25 41 11 76 19 78 17 13 -12 -115 -128 -177 -159 -71 -37 -145 -56
-246 -62 -38 -3 -106 -13 -150 -22 -68 -14 -130 -17 -417 -14 l-337 3 -11 -22
c-10 -17 -9 -24 3 -37 13 -12 54 -16 211 -20 108 -3 196 -8 196 -12 0 -15 -59
-58 -94 -70 -58 -19 -172 -7 -241 25 -33 16 -89 34 -125 42 -89 19 -143 47
-188 98 -42 48 -62 100 -62 164 l0 41 119 0 c193 0 449 56 631 138 25 11 46
21 47 21 1 1 28 -17 61 -38z"/>
<path d="M4665 8966 c-120 -38 -287 -144 -520 -331 l-150 -121 -1 72 c-1 82
-18 132 -48 143 -25 10 -294 -3 -385 -18 -109 -18 -116 -45 -108 -415 l5 -271
-164 -167 c-322 -330 -504 -578 -504 -689 0 -55 26 -98 72 -119 36 -16 66 -20
186 -20 126 0 144 -2 161 -19 28 -28 35 -121 27 -396 -23 -896 -21 -978 32
-1085 25 -51 31 -56 74 -67 62 -15 284 -40 493 -55 237 -17 1316 -17 1545 0
364 27 648 63 687 88 31 19 59 78 72 149 16 85 13 355 -5 625 -22 305 -24 690
-5 744 18 51 81 80 225 101 122 18 133 22 170 66 36 42 36 121 2 189 -88 175
-354 498 -676 821 -286 287 -506 477 -719 620 -220 149 -350 192 -466 155z
m189 -80 c209 -75 535 -327 916 -706 400 -398 720 -803 720 -910 0 -32 -37
-80 -62 -80 -7 0 -57 -7 -112 -15 -132 -20 -203 -55 -233 -116 -48 -95 -50
-209 -16 -729 9 -135 16 -337 17 -450 1 -225 -10 -301 -48 -325 -43 -27 -374
-66 -721 -84 -659 -35 -1488 -17 -1895 42 -83 12 -85 13 -102 47 -36 73 -41
269 -23 777 23 654 16 715 -94 752 -19 6 -95 11 -169 11 -157 0 -172 6 -172
73 0 98 170 322 504 665 l159 162 -7 275 c-4 151 -4 294 -1 319 l7 44 96 11
c191 21 294 24 303 10 5 -8 9 -59 9 -114 0 -161 16 -163 187 -19 305 257 510
383 625 384 26 0 76 -11 112 -24z"/>
<path d="M8398 6297 c-161 -61 -241 -176 -242 -352 0 -99 16 -164 65 -252 l28
-52 -67 32 c-61 29 -76 32 -162 32 -81 -1 -103 -5 -152 -27 -121 -56 -198
-172 -206 -308 -5 -96 10 -166 54 -247 l34 -63 -38 0 c-106 -1 -212 -108 -256
-261 -26 -88 -44 -210 -57 -371 -15 -194 -9 -310 16 -338 36 -40 40 -27 53
168 13 208 41 397 71 484 49 141 145 223 276 235 36 3 65 7 65 8 0 2 -17 29
-39 61 -59 90 -76 146 -76 244 0 71 4 94 27 142 59 126 185 218 299 218 64 0
129 -23 129 -45 0 -8 7 -15 15 -15 9 0 12 6 9 15 -8 20 29 20 46 0 10 -12 9
-16 -3 -21 -13 -5 -11 -13 11 -57 53 -101 30 -260 -59 -408 -21 -36 -39 -74
-39 -86 0 -35 39 -71 116 -108 73 -35 77 -38 104 -98 18 -39 33 -93 40 -147
15 -119 26 -575 13 -583 -24 -15 -195 -28 -523 -38 -195 -7 -356 -13 -358 -15
-2 -1 4 -16 12 -33 31 -59 35 -60 326 -57 241 3 419 16 584 45 l41 7 0 289
c-1 331 -9 401 -62 505 -37 75 -88 126 -159 159 -24 12 -44 23 -44 26 0 2 22
46 49 97 27 51 57 122 66 158 30 114 6 233 -61 313 -27 32 -27 32 -6 35 12 2
22 5 22 7 0 2 -13 25 -30 52 -75 121 -95 278 -49 398 47 125 167 205 307 205
96 0 128 -20 172 -105 32 -63 35 -75 34 -154 0 -77 -5 -98 -43 -196 -47 -118
-57 -161 -47 -199 8 -32 54 -75 113 -107 61 -32 83 -74 90 -176 6 -83 24 -133
48 -133 8 0 15 3 15 8 -2 64 -24 200 -39 234 -24 57 -72 112 -111 128 -37 15
-38 32 -6 108 102 243 90 445 -33 553 -76 67 -142 92 -251 96 -63 2 -107 -1
-132 -10z"/>
<path d="M9232 5695 c-108 -26 -214 -129 -247 -240 -32 -103 -9 -263 50 -349
14 -20 25 -39 25 -41 0 -3 -17 -5 -37 -5 -54 -1 -112 -30 -160 -82 -49 -54
-65 -83 -92 -168 -63 -201 -92 -669 -45 -721 35 -39 40 -25 52 164 30 448 84
611 231 690 33 18 72 30 115 34 37 3 66 8 66 10 0 2 -11 19 -24 36 -66 89
-102 205 -92 300 23 225 266 394 437 304 152 -81 168 -291 39 -509 -22 -36
-40 -75 -40 -86 0 -34 39 -71 115 -106 112 -54 136 -110 155 -356 12 -162 13
-467 2 -474 -23 -14 -201 -27 -522 -37 -195 -7 -356 -13 -358 -15 -8 -6 30
-65 51 -78 36 -24 514 -15 732 13 93 12 174 26 179 31 4 4 6 143 3 312 -4 268
-7 312 -26 382 -11 44 -32 98 -45 121 -32 54 -96 112 -152 135 -24 11 -44 23
-44 27 0 4 15 33 34 64 66 110 90 185 91 284 0 77 -4 98 -26 145 -60 129 -223
231 -364 229 -27 0 -74 -6 -103 -14z"/>
<path d="M2505 5440 c-28 -10 -95 -86 -95 -106 0 -10 24 9 60 46 33 35 59 64
58 65 -2 2 -12 -1 -23 -5z"/>
<path d="M2675 5399 c-24 -44 -5 -60 30 -25 28 28 29 49 2 54 -10 2 -22 -9
-32 -29z"/>
<path d="M2515 5303 c-11 -2 -31 -6 -44 -9 -16 -4 -21 -8 -14 -15 13 -13 123
7 123 22 0 9 -28 10 -65 2z"/>
<path d="M2641 5264 c-21 -30 -22 -37 -10 -45 25 -16 38 -10 63 28 19 28 22
39 13 45 -24 15 -42 7 -66 -28z"/>
<path d="M2635 5151 l-90 -16 70 -3 c39 -2 90 0 115 3 41 6 43 8 25 21 -10 8
-21 13 -24 13 -3 -1 -46 -9 -96 -18z"/>
<path d="M5918 4963 c-19 -23 -31 -43 -24 -43 2 0 14 14 26 30 23 33 22 40 -2
13z"/>
<path d="M5836 4853 c-6 -14 -5 -15 5 -6 7 7 10 15 7 18 -3 3 -9 -2 -12 -12z"/>
<path d="M5770 4768 l-33 -43 38 38 c20 21 35 40 32 43 -2 3 -19 -14 -37 -38z"/>
<path d="M5675 4650 c-3 -5 -2 -10 4 -10 5 0 13 5 16 10 3 6 2 10 -4 10 -5 0
-13 -4 -16 -10z"/>
<path d="M5634 4597 c-16 -19 -36 -43 -44 -53 -8 -11 -21 -27 -29 -37 -7 -9
-9 -17 -4 -17 6 0 22 17 36 38 14 20 37 50 52 65 15 16 25 30 22 33 -2 3 -17
-11 -33 -29z"/>
<path d="M5509 4448 c-13 -18 -28 -36 -34 -40 -5 -4 -6 -8 -2 -8 15 0 77 69
67 75 -5 3 -19 -9 -31 -27z"/>
<path d="M5430 2230 c0 -6 4 -10 9 -10 5 0 22 -5 38 -12 15 -6 30 -12 33 -12
3 -1 11 -5 18 -9 7 -5 12 -4 12 2 0 6 -2 11 -5 11 -2 0 -27 9 -55 20 -27 11
-50 15 -50 10z"/>
<path d="M5658 2153 c7 -3 16 -2 19 1 4 3 -2 6 -13 5 -11 0 -14 -3 -6 -6z"/>
<path d="M5698 2143 c7 -3 16 -2 19 1 4 3 -2 6 -13 5 -11 0 -14 -3 -6 -6z"/>
</g>
</svg>
